# xmcd CD Database Entry
#
# Track frame offsets:
# 150
# 23695
# 46837
# 69107
# 93797
# 112590
# 132392
# 152657
# 167927
#
# Disc length: 2477 seconds
#
# Revision: 4
# Processed by: cddbd v1.4PL0 Copyright (c) Steve Scherf et al.
# Submitted via: tcd 2.0b
#
DISCID=5f09ab09
DTITLE=Temtations - Together again
DYEAR=1900
DGENRE=
TTITLE0=Look what You started
TTITLE1=I wonder who she's seeing now
TTITLE2=10 x 10
TTITLE3=Do You wanna go with me
TTITLE4=Little things
TTITLE5=I got Your number
TTITLE6=Every time I close my eyes
TTITLE7=Lucky
TTITLE8=Put Your foot down
EXTD=
EXTT0=
EXTT1=
EXTT2=
EXTT3=
EXTT4=
EXTT5=
EXTT6=
EXTT7=
EXTT8=
PLAYORDER=
